#!OML:ASF H:\Terrain\Patient Classification 1\Terrain2\Thursday\justin.ASF
:FULLY-SPECIFIED
:DEGREES
1618
root 3.55098 22.7386 -0.593848 182.503 48.2388 -172.105
lowerback 11.5369 2.97619 -2.70281
upperback 5.90139 4.10436 0.211494
thorax -0.484976 2.17749 1.24806
lowerneck -7.51821 -6.94296 -12.5335
upperneck 36.1182 -7.45289 7.79677
head 14.5577 -3.09892 4.566
rclavicle -7.73272e-014 1.11319e-014
rhumerus -31.9383 -15.1583 -72.723
rradius 35.2069
rwrist -8.76938
rhand -19.4005 14.4607
rfingers 7.12502
rthumb 6.91854 -15.4062
lclavicle -7.73272e-014 1.11319e-014
lhumerus -32.6796 9.32874 70.0645
lradius 40.7573
lwrist 10.6413
lhand -23.1483 20.936
lfingers 7.12502
lthumb 3.29986 50.8902
rfemur -38.2992 -17.7199 10.3073
rtibia 31.1606
rfoot 10.2067 -12.8318
rtoes 16.2321
lfemur 1.34988 -12.8368 -10.5248
ltibia 40.8099
lfoot -16.8228 -28.765
ltoes 31.0661
1619
root 3.68136 22.7245 -0.593403 182.485 47.8348 -171.824
lowerback 11.519 3.0462 -2.46538
upperback 5.96974 4.2319 0.148853
thorax -0.389143 2.24958 1.03955
lowerneck -7.53227 -7.07641 -12.4431
upperneck 36.2641 -7.6696 7.8747
head 14.6608 -3.1615 4.55926
rclavicle -5.36719e-015 -3.97569e-015
rhumerus -32.4829 -15.2771 -72.2892
rradius 35.4832
rwrist -9.05743
rhand -19.3426 14.5585
rfingers 7.12502
rthumb 6.97449 -15.3066
lclavicle -5.36719e-015 -3.97569e-015
lhumerus -32.3338 8.94333 69.7795
lradius 40.8034
lwrist 10.5632
lhand -22.6175 20.4311
lfingers 7.12502
lthumb 3.81249 50.3767
rfemur -37.7957 -17.427 9.81744
rtibia 30.206
rfoot 10.8061 -13.423
rtoes 17.1155
lfemur 1.9435 -13.1314 -9.99277
ltibia 40.66
lfoot -16.533 -29.2758
ltoes 31.2838
1620
root 3.82354 22.676 -0.590796 182.75 47.4592 -171.196
lowerback 11.4535 3.08467 -2.01586
upperback 6.01859 4.33648 0.0552212
thorax -0.269446 2.3143 0.686817
lowerneck -7.51972 -7.12668 -11.938
upperneck 36.3252 -7.82016 7.82285
head 14.6711 -3.15566 4.42952
rclavicle -4.41302e-014 -1.19271e-014
rhumerus -33.023 -15.4808 -72.0636
rradius 35.7923
rwrist -9.2899
rhand -19.4438 14.7313
rfingers 7.12502
rthumb 6.87673 -15.137
lclavicle -4.41302e-014 -1.19271e-014
lhumerus -32.017 8.38903 69.3067
lradius 40.9385
lwrist 10.6454
lhand -22.5078 20.2776
lfingers 7.12502
lthumb 3.91839 50.2213
rfemur -37.3999 -17.3473 9.87992
rtibia 29.4436
rfoot 11.5449 -13.7066
rtoes 15.9861
lfemur 2.54034 -13.5429 -9.18512
ltibia 40.5474
lfoot -15.9858 -29.8311
ltoes 32.1204
1621
root 3.9759 22.6473 -0.583057 183.119 47.1203 -170.264
lowerback 11.4813 3.11042 -1.52487
upperback 6.05183 4.42604 0.101758
thorax -0.222116 2.37115 0.451234
lowerneck -7.32889 -7.15173 -11.8939
upperneck 36.3408 -7.97021 8.14291
head 14.6689 -3.16865 4.54304
rclavicle 1.13307e-013 -2.06736e-014
rhumerus -33.6699 -15.6447 -71.7682
rradius 36.1509
rwrist -9.07631
rhand -19.5615 14.7919
rfingers 7.12502
rthumb 6.76318 -15.0801
lclavicle 1.13307e-013 -2.06736e-014
lhumerus -31.8274 8.08395 68.7445
lradius 41.0899
lwrist 10.3427
lhand -22.0718 21.2239
lfingers 7.12502
lthumb 4.33942 51.1595
rfemur -36.822 -16.4983 9.86615
rtibia 28.908
rfoot 11.7322 -14.8775
rtoes 16.7011
lfemur 3.2291 -13.8638 -8.06602
ltibia 40.4329
lfoot -15.6633 -30.4176
ltoes 31.698
1622
root 4.12767 22.621 -0.572994 182.901 46.7622 -170.225
lowerback 11.4733 3.09325 -1.853
upperback 6.06545 4.37476 0.193789
thorax -0.231982 2.33823 0.735278
lowerneck -7.25641 -7.17317 -12.3357
upperneck 36.4386 -7.9939 8.43326
head 14.7497 -3.19935 4.75168
rclavicle 6.59965e-014 -3.26007e-014
rhumerus -34.2369 -15.0802 -71.3748
rradius 36.6004
rwrist -8.96241
rhand -19.674 14.3782
rfingers 7.12502
rthumb 6.65454 -15.4972
lclavicle 6.59965e-014 -3.26007e-014
lhumerus -31.835 8.15389 68.3826
lradius 41.2795
lwrist 10.2851
lhand -21.4988 22.444
lfingers 7.12502
lthumb 4.89278 52.3676
rfemur -36.4396 -15.9045 9.28765
rtibia 28.5484
rfoot 12.2208 -15.5189
rtoes 17.0268
lfemur 3.74862 -14.0862 -7.5498
ltibia 40.3567
lfoot -15.4952 -30.9941
ltoes 30.8718
1623
root 4.26593 22.5795 -0.572526 181.981 46.1893 -171.625
lowerback 11.2756 3.09256 -2.76494
upperback 5.96054 4.27692 -0.175145
thorax -0.263267 2.27293 0.881235
lowerneck -7.18696 -7.25426 -12.2537
upperneck 36.4895 -8.14187 8.48522
head 14.778 -3.24014 4.742
rclavicle 6.69904e-014 6.36111e-015
rhumerus -34.984 -14.9363 -70.9996
rradius 37.1051
rwrist -8.91798
rhand -19.6689 14.3277
rfingers 7.12502
rthumb 6.65944 -15.5476
lclavicle 6.69904e-014 6.36111e-015
lhumerus -31.6843 7.83357 67.9629
lradius 41.4607
lwrist 10.5251
lhand -21.1999 23.036
lfingers 7.12502
lthumb 5.18132 52.9526
rfemur -36.6018 -16.6149 8.00341
rtibia 28.4409
rfoot 13.4122 -14.8553
rtoes 15.0379
lfemur 3.88414 -14.5892 -8.2119
ltibia 40.1908
lfoot -15.0506 -31.5571
ltoes 31.7449
